<?xml version="1.0" encoding="UTF-8" standalone="no"?>
<svg
   xmlns:dc="http://purl.org/dc/elements/1.1/"
   xmlns:cc="http://creativecommons.org/ns#"
   xmlns:rdf="http://www.w3.org/1999/02/22-rdf-syntax-ns#"
   xmlns:svg="http://www.w3.org/2000/svg"
   xmlns="http://www.w3.org/2000/svg"
   xmlns:sodipodi="http://sodipodi.sourceforge.net/DTD/sodipodi-0.dtd"
   xmlns:inkscape="http://www.inkscape.org/namespaces/inkscape"
   width="210mm"
   height="210mm"
   viewBox="0 0 210 210"
   version="1.1"
   id="svg8"
   inkscape:version="1.0.1 (c497b03c, 2020-09-10)"
   sodipodi:docname="etianggelogosample.svg">
  <defs
     id="defs2" />
  <sodipodi:namedview
     id="base"
     pagecolor="#ffffff"
     bordercolor="#666666"
     borderopacity="1.0"
     inkscape:pageopacity="0.0"
     inkscape:pageshadow="2"
     inkscape:zoom="0.35"
     inkscape:cx="168.57143"
     inkscape:cy="560"
     inkscape:document-units="mm"
     inkscape:current-layer="layer1"
     inkscape:document-rotation="0"
     showgrid="false"
     inkscape:window-width="1252"
     inkscape:window-height="767"
     inkscape:window-x="0"
     inkscape:window-y="23"
     inkscape:window-maximized="0" />
  <metadata
     id="metadata5">
    <rdf:RDF>
      <cc:Work
         rdf:about="">
        <dc:format>image/svg+xml</dc:format>
        <dc:type
           rdf:resource="http://purl.org/dc/dcmitype/StillImage" />
        <dc:title></dc:title>
      </cc:Work>
    </rdf:RDF>
  </metadata>
  <g
     inkscape:label="Layer 1"
     inkscape:groupmode="layer"
     id="layer1">
    <path
       style="fill:#000000;stroke:#ff0000;stroke-width:0.1"
       id="path839"
       d="m 9.4226199,106.99822 c 7.9668391,-1.62842 16.0702581,-2.56535 24.1437041,-3.45671 16.973029,-1.87396 24.558921,-2.66896 41.942721,-3.32825 6.989281,-0.265063 13.986708,-0.230717 20.980064,-0.346076 20.533341,0.193226 41.124381,1.141526 61.473561,4.021486 17.83124,2.65612 0.32682,3.94129 38.29638,-17.056366 -0.19713,-0.554379 -0.6229,-1.885442 -0.978,-2.512891 -2.61369,-4.618331 -0.56156,-0.0373 -4.40124,-7.524705 -1.3815,-2.693942 -2.72801,-5.411493 -3.89385,-8.205536 -1.30553,-3.128798 -2.34182,-6.363255 -3.51272,-9.544886 -0.82857,-2.649746 -4.43097,-14.585487 -5.8009,-17.441828 -1.17615,-2.452293 -2.67738,-4.755671 -4.33144,-6.914642 -4.48767,-5.857544 -10.48579,-10.26909 -16.38931,-14.547072 -7.07407,-3.585158 -6.03404,-3.429079 -13.92816,-5.83174 -2.54706,-0.775224 -5.10402,-1.55077 -7.71797,-2.056473 -5.19336,-1.004721 -10.87383,-1.740633 -15.80182,1.165166 -10.98144,6.475229 -21.089627,14.328649 -31.634439,21.492973 -8.801206,14.2764 -15.565178,29.631766 -21.353158,45.339491 -2.355845,6.393413 -4.404993,12.89572 -6.627866,19.33657 -8.260082,23.933869 -5.287803,15.519809 -13.926989,38.793749 -5.456182,14.01309 -11.31248,27.882 -17.767797,41.46654 -2.863747,6.02646 -6.006154,11.91735 -9.006443,17.87577 -0.03069,1.05582 -0.821003,2.40304 -0.09206,3.16745 3.858367,4.0461 12.196312,1.98784 16.083596,1.67793 5.108411,-0.40726 10.199748,-1.01461 15.309236,-1.4081 17.176919,-1.32285 17.807294,-1.13185 34.932734,-1.60875 19.092506,-0.15226 38.178716,-0.98501 57.273806,-0.8941 6.0289,0.0287 9.68241,0.18303 15.48462,0.37449 4.56614,0.40542 9.17213,0.19027 13.73647,0.5977 10.70121,-6.31108 21.62931,-12.25237 32.10364,-18.93325 0.40036,-0.25536 -0.045,-0.96402 -0.21112,-1.40888 -0.28782,-0.77075 -0.72927,-1.47595 -1.13371,-2.19241 -0.68312,-1.21013 -1.48132,-2.35491 -2.12769,-3.58506 -1.29624,-2.46696 -4.29499,-9.16339 -5.34302,-11.46618 -3.91671,-7.16893 -9.04813,-13.55093 -13.84653,-20.12942 0,0 -25.05891,14.93 -25.05891,14.93 v 0 c 1.66655,2.01111 3.47049,3.91586 4.99964,6.03331 4.44093,6.14949 4.4243,7.10429 7.3448,13.89235 1.49147,5.33988 2.32376,7.09052 2.58546,12.53584 0.0709,1.47567 -0.0197,2.96651 -0.25735,4.42465 -0.0854,0.52383 -0.31718,1.06096 -0.69718,1.43148 -0.14484,0.14122 -0.75027,-0.0861 -0.57647,-0.1896 10.35841,-6.16922 20.87136,-12.07519 31.30704,-18.11278 -1.43728,1.08093 -2.77834,1.45654 -4.54893,1.88756 -4.81181,1.17135 -9.68946,2.0674 -14.58444,2.80865 -7.28105,1.11205 -12.21105,1.92092 -19.72677,2.79911 -20.31305,2.37353 -40.76076,3.24425 -61.19029,3.87755 -12.696778,-0.002 -19.091236,0.30125 -31.526256,-0.82051 -17.397489,-1.56943 -5.0146,-0.71645 -17.132752,-3.10769 -0.597707,-0.11794 -1.261896,0.25091 -1.827535,0.0246 -0.388419,-0.1554 -0.470302,-0.69202 -0.705453,-1.03803 0.286189,-4.91233 1.090125,-9.66591 2.020366,-14.50445 2.420752,-12.59128 5.454142,-25.05388 9.025525,-37.36975 1.846177,-6.06394 3.554748,-12.1715 5.538533,-18.19183 C 70.99989,99.101042 75.550971,87.006896 81.512632,73.365697 86.715629,61.460436 92.22347,49.644309 99.758108,38.979135 103.15639,34.168914 107.3019,29.93274 111.0738,25.409541 c -4.83796,1.904321 -9.73955,3.654331 -14.513899,5.712964 -2.328156,1.003869 4.662769,-2.152759 7.167559,-2.545324 6.93845,-1.087435 15.3874,2.075881 21.59165,4.865854 2.05966,0.926203 4.01514,2.068563 6.02271,3.102843 4.34795,2.633131 7.60094,4.374658 11.51868,7.700669 8.94399,7.593092 13.53541,16.63479 17.24976,27.600208 0.84372,3.319013 1.94588,6.582852 2.53116,9.957044 1.06711,6.152004 1.11277,10.50817 0.36512,16.479564 -0.12879,1.028576 -0.40866,2.037317 -0.72925,3.023107 -0.0499,0.15353 -0.23344,0.4255 -0.35947,0.32459 -0.34205,-0.27388 -0.43807,-0.75903 -0.65711,-1.13854 43.27646,-23.884969 41.51985,-18.998532 23.07888,-15.930001 -25.03802,4.014798 -50.39635,5.572921 -75.71739,6.467049 C 93.028502,91.148295 84.215737,91.577012 68.829364,90.332685 63.96578,89.939355 59.135883,89.190984 54.30992,88.470407 49.465566,87.747084 44.26058,86.955932 39.68173,85.013695 c 0,0 -30.2591121,21.984535 -30.2591121,21.984535 z" />
    <path
       style="fill:#000000;stroke:#ff0000;stroke-width:0.1"
       id="path841"
       d="m 59.889979,143.57518 c 2.194052,-0.35441 4.37814,-0.77725 6.582156,-1.06323 8.65786,-1.12341 12.899565,-1.3232 21.858113,-1.91264 12.182682,-0.80158 24.369052,-1.50575 36.562682,-2.11398 11.09529,-0.54798 22.20561,-0.46303 33.30857,-0.68787 1.85036,-0.0434 3.68961,-0.063 5.40498,-0.80876 0,0 28.9384,-22.93291 28.9384,-22.93291 v 0 c -0.97438,0.44088 -1.77705,1.09944 -2.72434,1.57467 -1.27065,0.63744 -2.44754,0.88482 -3.82918,1.27839 -13.37944,3.5621 -27.20563,5.05565 -40.92105,6.69451 -3.98275,0.36868 -7.95844,0.82371 -11.94824,1.10605 -7.76327,0.54937 -15.99947,0.84082 -23.79182,0.60567 -5.82162,-0.17568 -11.13882,-0.58802 -16.805047,-1.73179 -1.243854,-0.25108 -2.436886,-0.70883 -3.65533,-1.06324 0,0 -28.979894,21.05513 -28.979894,21.05513 z" />
    <path
       style="fill:#000000;stroke:#ff0000;stroke-width:0.1"
       id="path865"
       d="m 103.04178,143.06337 c 0.29063,0.75025 0.67392,1.47092 0.8719,2.25075 0.59313,2.33626 0.89588,5.9617 1.02254,8.26557 0.26746,4.86516 0.10346,9.69746 -0.18576,14.55418 -0.28876,4.38865 -0.94852,8.74174 -1.7707,13.05864 -0.13768,0.73261 -0.10205,1.47742 -0.15256,2.21689 0,0 33.22655,-16.92978 33.22655,-16.92978 v 0 c -0.0505,-0.68774 -0.009,-1.38193 -0.15256,-2.06142 -0.87425,-3.69941 -1.51055,-7.45783 -1.77069,-11.2542 -0.48898,-7.71268 -0.69818,-16.06232 0.83677,-23.67247 0.21472,-1.06459 0.58126,-2.09284 0.8719,-3.13926 0,0 -32.79739,16.7111 -32.79739,16.7111 z" />
  </g>
</svg>
